<svg xmlns="http://www.w3.org/2000/svg" viewBox="0 0 64 64" role="img" aria-label="APK Cache">
  <rect width="64" height="64" rx="14" fill="#13201d"/>
  <path d="M18 23.5 32 15l14 8.5-14 8.5-14-8.5Z" fill="#dff4ee"/>
  <path d="M18 23.5v17L32 49V32L18 23.5Z" fill="#2fb083"/>
  <path d="M46 23.5v17L32 49V32l14-8.5Z" fill="#12665a"/>
  <path d="m18 23.5 14 8.5 14-8.5" fill="none" stroke="#ffffff" stroke-opacity=".55" stroke-width="2" stroke-linejoin="round"/>
  <path d="M32 32v17" fill="none" stroke="#0d4d44" stroke-width="2" stroke-linecap="round"/>
  <path d="M19 41c3.4 6 10.8 8.7 17.4 6.1" fill="none" stroke="#f5c84b" stroke-width="3.5" stroke-linecap="round"/>
  <path d="m35.5 42.8 1.2 4.3-4.4 1.3" fill="none" stroke="#f5c84b" stroke-width="3.5" stroke-linecap="round" stroke-linejoin="round"/>
  <path d="M45 23c-3.4-6-10.8-8.7-17.4-6.1" fill="none" stroke="#f5c84b" stroke-width="3.5" stroke-linecap="round"/>
  <path d="m28.5 21.2-1.2-4.3 4.4-1.3" fill="none" stroke="#f5c84b" stroke-width="3.5" stroke-linecap="round" stroke-linejoin="round"/>
</svg>
